<mxfile host="app.diagrams.net" agent="Mozilla/5.0 (Macintosh; Intel Mac OS X 10_15_7) AppleWebKit/537.36 (KHTML, like Gecko) Chrome/128.0.0.0 Safari/537.36" version="24.7.7">
  <diagram name="第 1 页" id="0SqWjQKYd_zknN7Euad0">
    <mxGraphModel dx="954" dy="605" grid="0" gridSize="10" guides="1" tooltips="1" connect="1" arrows="1" fold="1" page="1" pageScale="1" pageWidth="827" pageHeight="1169" math="0" shadow="0">
      <root>
        <mxCell id="0" />
        <mxCell id="1" parent="0" />
        <mxCell id="Ousyl8cmQgwuk56TgRzb-9" style="edgeStyle=entityRelationEdgeStyle;rounded=0;orthogonalLoop=1;jettySize=auto;html=1;exitX=1;exitY=0.5;exitDx=0;exitDy=0;entryX=0;entryY=0.5;entryDx=0;entryDy=0;" edge="1" parent="1" source="Ousyl8cmQgwuk56TgRzb-1" target="Ousyl8cmQgwuk56TgRzb-6">
          <mxGeometry relative="1" as="geometry" />
        </mxCell>
        <mxCell id="Ousyl8cmQgwuk56TgRzb-10" value="git" style="edgeLabel;html=1;align=center;verticalAlign=middle;resizable=0;points=[];" vertex="1" connectable="0" parent="Ousyl8cmQgwuk56TgRzb-9">
          <mxGeometry x="-0.1214" y="2" relative="1" as="geometry">
            <mxPoint as="offset" />
          </mxGeometry>
        </mxCell>
        <mxCell id="Ousyl8cmQgwuk56TgRzb-1" value="云开发机" style="rounded=1;whiteSpace=wrap;html=1;fillColor=#d5e8d4;strokeColor=#82b366;" vertex="1" parent="1">
          <mxGeometry x="240" y="65" width="120" height="60" as="geometry" />
        </mxCell>
        <mxCell id="Ousyl8cmQgwuk56TgRzb-2" value="线上机器" style="rounded=1;whiteSpace=wrap;html=1;fillColor=#dae8fc;strokeColor=#6c8ebf;" vertex="1" parent="1">
          <mxGeometry x="240" y="220" width="120" height="60" as="geometry" />
        </mxCell>
        <mxCell id="Ousyl8cmQgwuk56TgRzb-3" value="" style="swimlane;startSize=0;fillColor=#d5e8d4;strokeColor=#82b366;" vertex="1" parent="1">
          <mxGeometry x="440" y="40" width="280" height="260" as="geometry" />
        </mxCell>
        <mxCell id="Ousyl8cmQgwuk56TgRzb-5" value="coding" style="text;html=1;align=center;verticalAlign=middle;whiteSpace=wrap;rounded=0;" vertex="1" parent="Ousyl8cmQgwuk56TgRzb-3">
          <mxGeometry x="110" width="60" height="30" as="geometry" />
        </mxCell>
        <mxCell id="Ousyl8cmQgwuk56TgRzb-11" style="edgeStyle=orthogonalEdgeStyle;rounded=0;orthogonalLoop=1;jettySize=auto;html=1;exitX=1;exitY=0.5;exitDx=0;exitDy=0;entryX=0.5;entryY=0;entryDx=0;entryDy=0;curved=1;" edge="1" parent="Ousyl8cmQgwuk56TgRzb-3" source="Ousyl8cmQgwuk56TgRzb-6" target="Ousyl8cmQgwuk56TgRzb-7">
          <mxGeometry relative="1" as="geometry" />
        </mxCell>
        <mxCell id="Ousyl8cmQgwuk56TgRzb-14" value="触发" style="edgeLabel;html=1;align=center;verticalAlign=middle;resizable=0;points=[];" vertex="1" connectable="0" parent="Ousyl8cmQgwuk56TgRzb-11">
          <mxGeometry x="-0.3043" y="-4" relative="1" as="geometry">
            <mxPoint as="offset" />
          </mxGeometry>
        </mxCell>
        <mxCell id="Ousyl8cmQgwuk56TgRzb-6" value="代码仓库" style="rounded=1;whiteSpace=wrap;html=1;fillColor=#fff2cc;strokeColor=#d6b656;" vertex="1" parent="Ousyl8cmQgwuk56TgRzb-3">
          <mxGeometry x="20" y="30" width="100" height="50" as="geometry" />
        </mxCell>
        <mxCell id="Ousyl8cmQgwuk56TgRzb-12" style="edgeStyle=orthogonalEdgeStyle;rounded=0;orthogonalLoop=1;jettySize=auto;html=1;exitX=0.5;exitY=1;exitDx=0;exitDy=0;entryX=1;entryY=0.5;entryDx=0;entryDy=0;curved=1;" edge="1" parent="Ousyl8cmQgwuk56TgRzb-3" source="Ousyl8cmQgwuk56TgRzb-7" target="Ousyl8cmQgwuk56TgRzb-8">
          <mxGeometry relative="1" as="geometry" />
        </mxCell>
        <mxCell id="Ousyl8cmQgwuk56TgRzb-7" value="持续集成" style="rounded=1;whiteSpace=wrap;html=1;fillColor=#d5e8d4;strokeColor=#82b366;" vertex="1" parent="Ousyl8cmQgwuk56TgRzb-3">
          <mxGeometry x="140" y="90" width="120" height="60" as="geometry" />
        </mxCell>
        <mxCell id="Ousyl8cmQgwuk56TgRzb-8" value="部署" style="rounded=1;whiteSpace=wrap;html=1;fillColor=#e1d5e7;strokeColor=#9673a6;" vertex="1" parent="Ousyl8cmQgwuk56TgRzb-3">
          <mxGeometry x="20" y="180" width="120" height="60" as="geometry" />
        </mxCell>
        <mxCell id="Ousyl8cmQgwuk56TgRzb-13" style="edgeStyle=orthogonalEdgeStyle;rounded=0;orthogonalLoop=1;jettySize=auto;html=1;exitX=0;exitY=0.5;exitDx=0;exitDy=0;entryX=1;entryY=0.5;entryDx=0;entryDy=0;" edge="1" parent="1" source="Ousyl8cmQgwuk56TgRzb-8" target="Ousyl8cmQgwuk56TgRzb-2">
          <mxGeometry relative="1" as="geometry" />
        </mxCell>
      </root>
    </mxGraphModel>
  </diagram>
</mxfile>
